<svg xmlns="http://www.w3.org/2000/svg" xmlns:xlink="http://www.w3.org/1999/xlink" width="112" zoomAndPan="magnify" viewBox="0 0 84 36.000001" height="48" preserveAspectRatio="xMidYMid meet" version="1.0"><defs><g/><clipPath id="b1abf9b348"><path d="M 35.304688 1.132812 L 50.628906 1.132812 L 50.628906 24.484375 L 35.304688 24.484375 Z M 35.304688 1.132812 " clip-rule="nonzero"/></clipPath></defs><g clip-path="url(#b1abf9b348)"><path fill="#c2986e" d="M 50.613281 7.359375 L 50.613281 10.652344 L 48.988281 10.652344 L 48.988281 7.359375 Z M 47.4375 6.929688 L 47.4375 21.554688 C 47.4375 21.792969 47.257812 22.070312 47.0625 22.132812 C 42.933594 23.476562 41.105469 23.640625 36.9375 22.132812 C 36.734375 22.0625 36.554688 21.789062 36.554688 21.554688 L 36.554688 6.929688 C 36.554688 6.695312 36.734375 6.425781 36.9375 6.347656 C 38.925781 5.613281 40.394531 5.246094 41.894531 5.246094 C 43.398438 5.246094 44.933594 5.613281 47.058594 6.351562 C 47.257812 6.421875 47.4375 6.695312 47.4375 6.929688 Z M 45.421875 15.972656 C 45.738281 15.742188 45.941406 15.371094 45.941406 14.953125 C 45.941406 14.257812 45.386719 13.695312 44.703125 13.695312 C 44.308594 13.695312 43.960938 13.882812 43.734375 14.171875 C 43.433594 14.007812 43.113281 13.878906 42.773438 13.792969 C 43.921875 13.386719 44.742188 12.28125 44.742188 10.980469 C 44.742188 9.335938 43.425781 8 41.804688 8 C 40.179688 8 38.867188 9.335938 38.867188 10.980469 C 38.867188 12.28125 39.6875 13.386719 40.832031 13.792969 C 40.492188 13.878906 40.171875 14.007812 39.875 14.171875 C 39.648438 13.882812 39.296875 13.695312 38.902344 13.695312 C 38.21875 13.695312 37.667969 14.257812 37.667969 14.953125 C 37.667969 15.371094 37.871094 15.742188 38.183594 15.972656 C 37.925781 16.511719 37.78125 17.113281 37.78125 17.75 C 37.78125 20.003906 39.582031 21.828125 41.804688 21.828125 C 44.023438 21.828125 45.824219 20.003906 45.824219 17.75 C 45.828125 17.113281 45.683594 16.511719 45.421875 15.972656 Z M 46.566406 7.675781 C 46.566406 7.308594 46.273438 7.007812 45.90625 7.007812 C 45.546875 7.007812 45.25 7.304688 45.25 7.675781 C 45.25 8.042969 45.546875 8.34375 45.90625 8.34375 C 46.273438 8.339844 46.566406 8.042969 46.566406 7.675781 Z M 48.671875 4.800781 L 48.671875 23.75 C 48.671875 24.15625 48.34375 24.484375 47.945312 24.484375 L 36.042969 24.484375 C 35.644531 24.484375 35.320312 24.15625 35.320312 23.75 L 35.320312 4.800781 C 35.320312 4.394531 35.644531 4.066406 36.042969 4.066406 L 47.945312 4.066406 C 48.34375 4.070312 48.671875 4.394531 48.671875 4.800781 Z M 47.789062 6.929688 C 47.789062 6.542969 47.511719 6.132812 47.171875 6.011719 C 42.828125 4.503906 40.890625 4.503906 36.816406 6.015625 C 36.472656 6.140625 36.203125 6.542969 36.203125 6.929688 L 36.203125 21.554688 C 36.203125 21.941406 36.472656 22.34375 36.820312 22.46875 C 38.871094 23.210938 40.390625 23.550781 41.882812 23.550781 C 43.472656 23.550781 45.03125 23.167969 47.167969 22.472656 C 47.511719 22.359375 47.789062 21.949219 47.789062 21.554688 Z M 41.804688 15.320312 C 40.480469 15.320312 39.40625 16.410156 39.40625 17.75 C 39.40625 19.09375 40.480469 20.183594 41.804688 20.183594 C 43.128906 20.183594 44.203125 19.09375 44.203125 17.75 C 44.203125 16.410156 43.128906 15.320312 41.804688 15.320312 Z M 43.996094 10.980469 C 43.996094 9.753906 43.015625 8.761719 41.804688 8.761719 C 40.59375 8.761719 39.613281 9.753906 39.613281 10.980469 C 39.613281 12.207031 40.597656 13.203125 41.804688 13.203125 C 43.015625 13.203125 43.996094 12.207031 43.996094 10.980469 Z M 38.90625 15.878906 C 38.691406 15.878906 38.496094 15.804688 38.339844 15.679688 C 38.128906 15.507812 37.992188 15.246094 37.992188 14.953125 C 37.992188 14.441406 38.402344 14.027344 38.90625 14.027344 C 39.179688 14.027344 39.425781 14.152344 39.59375 14.34375 C 39.734375 14.507812 39.820312 14.71875 39.820312 14.953125 C 39.820312 15.464844 39.410156 15.878906 38.90625 15.878906 Z M 39.445312 14.953125 C 39.445312 14.804688 39.386719 14.667969 39.289062 14.570312 C 39.191406 14.46875 39.054688 14.40625 38.902344 14.40625 C 38.605469 14.40625 38.363281 14.648438 38.363281 14.953125 C 38.363281 15.117188 38.433594 15.261719 38.546875 15.359375 C 38.644531 15.445312 38.765625 15.5 38.902344 15.5 C 39.203125 15.5 39.445312 15.253906 39.445312 14.953125 Z M 45.617188 14.953125 C 45.617188 15.246094 45.480469 15.507812 45.269531 15.679688 C 45.113281 15.804688 44.917969 15.878906 44.703125 15.878906 C 44.199219 15.878906 43.792969 15.464844 43.792969 14.953125 C 43.792969 14.71875 43.875 14.507812 44.015625 14.34375 C 44.183594 14.152344 44.429688 14.023438 44.703125 14.023438 C 45.207031 14.027344 45.617188 14.441406 45.617188 14.953125 Z M 45.0625 15.359375 C 45.171875 15.261719 45.246094 15.117188 45.246094 14.953125 C 45.246094 14.648438 45.003906 14.40625 44.707031 14.40625 C 44.554688 14.40625 44.417969 14.46875 44.320312 14.570312 C 44.226562 14.667969 44.164062 14.800781 44.164062 14.953125 C 44.164062 15.253906 44.40625 15.5 44.707031 15.5 C 44.839844 15.5 44.964844 15.445312 45.0625 15.359375 Z M 37.011719 3.578125 L 46.976562 3.578125 C 47.195312 3.578125 47.375 3.398438 47.375 3.175781 L 47.375 1.539062 C 47.375 1.316406 47.195312 1.132812 46.976562 1.132812 L 37.011719 1.132812 C 36.792969 1.132812 36.617188 1.316406 36.617188 1.539062 L 36.617188 3.175781 C 36.617188 3.398438 36.792969 3.578125 37.011719 3.578125 Z M 37.011719 3.578125 " fill-opacity="1" fill-rule="nonzero"/></g><path stroke-linecap="round" transform="matrix(0.191055, 0, 0, 0.191055, 8.814317, 19.820637)" fill="none" stroke-linejoin="miter" d="M 0.99233 1.000143 L 125.200105 1.000143 " stroke="#c2986e" stroke-width="2" stroke-opacity="1" stroke-miterlimit="4"/><path stroke-linecap="round" transform="matrix(0.191055, 0, 0, 0.191055, 8.814317, 8.448339)" fill="none" stroke-linejoin="miter" d="M 0.99233 1.006445 L 125.200105 1.006445 " stroke="#c2986e" stroke-width="2" stroke-opacity="1" stroke-miterlimit="4"/><g fill="#c2986e" fill-opacity="1"><g transform="translate(14.395712, 16.640033)"><g><path d="M 1.09375 -0.78125 L 2.484375 -0.78125 C 2.546875 -0.78125 2.578125 -0.734375 2.578125 -0.6875 L 2.578125 -0.09375 C 2.578125 -0.03125 2.546875 0 2.484375 0 L 0.390625 0 C 0.328125 0 0.296875 -0.03125 0.296875 -0.09375 L 0.296875 -4.59375 C 0.296875 -4.65625 0.328125 -4.6875 0.390625 -4.6875 L 1 -4.6875 C 1.0625 -4.6875 1.09375 -4.65625 1.09375 -4.59375 Z M 1.09375 -0.78125 "/></g></g></g><g fill="#c2986e" fill-opacity="1"><g transform="translate(17.623058, 16.640033)"><g><path d="M 0.296875 -0.84375 C 0.296875 -0.296875 0.59375 0 1.140625 0 L 1.796875 0 C 2.34375 0 2.640625 -0.296875 2.640625 -0.84375 L 2.640625 -3.84375 C 2.640625 -4.390625 2.34375 -4.6875 1.796875 -4.6875 L 1.140625 -4.6875 C 0.59375 -4.6875 0.296875 -4.390625 0.296875 -3.84375 Z M 1.3125 -0.75 C 1.15625 -0.75 1.078125 -0.828125 1.078125 -0.984375 L 1.078125 -3.703125 C 1.078125 -3.84375 1.15625 -3.9375 1.3125 -3.9375 L 1.640625 -3.9375 C 1.796875 -3.9375 1.875 -3.84375 1.875 -3.703125 L 1.875 -0.984375 C 1.875 -0.828125 1.796875 -0.75 1.640625 -0.75 Z M 1.3125 -0.75 "/></g></g></g><g fill="#c2986e" fill-opacity="1"><g transform="translate(20.908975, 16.640033)"><g><path d="M 2.640625 -3.84375 C 2.640625 -4.390625 2.34375 -4.6875 1.796875 -4.6875 L 1.140625 -4.6875 C 0.59375 -4.6875 0.296875 -4.390625 0.296875 -3.84375 L 0.296875 -0.84375 C 0.296875 -0.296875 0.59375 0 1.140625 0 L 1.796875 0 C 2.34375 0 2.640625 -0.296875 2.640625 -0.84375 L 2.640625 -1.484375 C 2.640625 -1.53125 2.609375 -1.578125 2.546875 -1.578125 L 1.96875 -1.578125 C 1.90625 -1.578125 1.875 -1.53125 1.875 -1.484375 L 1.875 -1.015625 C 1.875 -0.84375 1.78125 -0.78125 1.640625 -0.78125 L 1.328125 -0.78125 C 1.171875 -0.78125 1.09375 -0.84375 1.09375 -1.015625 L 1.09375 -3.6875 C 1.09375 -3.828125 1.171875 -3.921875 1.328125 -3.921875 L 1.640625 -3.921875 C 1.78125 -3.921875 1.875 -3.828125 1.875 -3.6875 L 1.875 -3.21875 C 1.875 -3.15625 1.90625 -3.125 1.96875 -3.125 L 2.546875 -3.125 C 2.609375 -3.125 2.640625 -3.15625 2.640625 -3.21875 Z M 2.640625 -3.84375 "/></g></g></g><g fill="#c2986e" fill-opacity="1"><g transform="translate(24.200749, 16.640033)"><g><path d="M 2.796875 0 C 2.890625 0 2.9375 -0.0625 2.890625 -0.140625 L 1.828125 -2.5 L 2.828125 -4.546875 C 2.859375 -4.625 2.828125 -4.6875 2.75 -4.6875 L 2.125 -4.6875 C 2.0625 -4.6875 2.015625 -4.65625 2 -4.59375 L 1.09375 -2.75 L 1.09375 -4.578125 C 1.09375 -4.640625 1.046875 -4.6875 0.96875 -4.6875 L 0.40625 -4.6875 C 0.328125 -4.6875 0.296875 -4.640625 0.296875 -4.578125 L 0.296875 -0.125 C 0.296875 -0.046875 0.328125 0 0.40625 0 L 0.96875 0 C 1.046875 0 1.09375 -0.046875 1.09375 -0.125 L 1.09375 -1.40625 L 1.3125 -1.828125 L 2.046875 -0.09375 C 2.0625 -0.03125 2.109375 0 2.1875 0 Z M 2.796875 0 "/></g></g></g><g fill="#c2986e" fill-opacity="1"><g transform="translate(26.669822, 30.429012)"><g><path d="M 1.8125 -2.0625 C 2.101562 -1.976562 2.304688 -1.851562 2.421875 -1.6875 C 2.535156 -1.519531 2.554688 -1.320312 2.484375 -1.09375 C 2.421875 -0.863281 2.285156 -0.707031 2.078125 -0.625 C 1.867188 -0.539062 1.617188 -0.539062 1.328125 -0.625 L 1 -0.71875 L 0.796875 -0.046875 L 0.890625 -0.03125 C 0.960938 0 0.988281 0.0390625 0.96875 0.09375 L 0.953125 0.1875 C 0.929688 0.25 0.882812 0.265625 0.8125 0.234375 L 0.328125 0.09375 C 0.242188 0.0703125 0.210938 0.03125 0.234375 -0.03125 L 0.25 -0.125 C 0.269531 -0.175781 0.320312 -0.191406 0.40625 -0.171875 L 0.5 -0.140625 L 1.0625 -2 L 0.96875 -2.03125 C 0.882812 -2.050781 0.847656 -2.09375 0.859375 -2.15625 L 0.890625 -2.234375 C 0.910156 -2.296875 0.960938 -2.316406 1.046875 -2.296875 Z M 1.375 -0.921875 C 1.601562 -0.847656 1.773438 -0.832031 1.890625 -0.875 C 2.015625 -0.914062 2.101562 -1.019531 2.15625 -1.1875 C 2.207031 -1.34375 2.195312 -1.46875 2.125 -1.5625 C 2.0625 -1.65625 1.925781 -1.734375 1.71875 -1.796875 L 1.359375 -1.90625 L 1.078125 -1 Z M 1.375 -0.921875 "/></g></g></g><g fill="#c2986e" fill-opacity="1"><g transform="translate(29.63455, 31.288664)"><g><path d="M 2.21875 0.21875 C 2.25 0.21875 2.273438 0.226562 2.296875 0.25 C 2.316406 0.28125 2.328125 0.3125 2.328125 0.34375 L 2.296875 0.4375 C 2.285156 0.5 2.238281 0.519531 2.15625 0.5 L 1.875 0.4375 C 1.832031 0.425781 1.804688 0.398438 1.796875 0.359375 L 1.546875 -0.375 C 1.503906 -0.488281 1.46875 -0.566406 1.4375 -0.609375 C 1.414062 -0.660156 1.382812 -0.691406 1.34375 -0.703125 C 1.3125 -0.722656 1.242188 -0.75 1.140625 -0.78125 L 0.96875 -0.8125 L 0.796875 -0.109375 L 0.890625 -0.09375 C 0.960938 -0.0703125 0.992188 -0.03125 0.984375 0.03125 L 0.953125 0.125 C 0.941406 0.1875 0.898438 0.207031 0.828125 0.1875 L 0.328125 0.078125 C 0.253906 0.0546875 0.222656 0.015625 0.234375 -0.046875 L 0.265625 -0.140625 C 0.273438 -0.203125 0.316406 -0.222656 0.390625 -0.203125 L 0.484375 -0.1875 L 0.921875 -2.0625 L 0.828125 -2.078125 C 0.753906 -2.097656 0.722656 -2.140625 0.734375 -2.203125 L 0.75 -2.28125 C 0.769531 -2.351562 0.816406 -2.378906 0.890625 -2.359375 L 1.671875 -2.1875 C 2.285156 -2.039062 2.539062 -1.742188 2.4375 -1.296875 C 2.394531 -1.117188 2.3125 -0.976562 2.1875 -0.875 C 2.0625 -0.769531 1.90625 -0.722656 1.71875 -0.734375 C 1.769531 -0.671875 1.8125 -0.582031 1.84375 -0.46875 L 2.078125 0.1875 Z M 1.40625 -1.015625 C 1.613281 -0.960938 1.769531 -0.960938 1.875 -1.015625 C 1.988281 -1.078125 2.066406 -1.191406 2.109375 -1.359375 C 2.140625 -1.503906 2.113281 -1.617188 2.03125 -1.703125 C 1.957031 -1.785156 1.8125 -1.851562 1.59375 -1.90625 L 1.234375 -1.984375 L 1.03125 -1.09375 Z M 1.40625 -1.015625 "/></g></g></g><g fill="#c2986e" fill-opacity="1"><g transform="translate(32.865239, 32.006231)"><g><path d="M 1.3125 0.234375 C 1.09375 0.203125 0.910156 0.125 0.765625 0 C 0.628906 -0.125 0.53125 -0.28125 0.46875 -0.46875 C 0.40625 -0.664062 0.394531 -0.894531 0.4375 -1.15625 C 0.476562 -1.414062 0.5625 -1.632812 0.6875 -1.8125 C 0.8125 -2 0.960938 -2.132812 1.140625 -2.21875 C 1.316406 -2.300781 1.519531 -2.320312 1.75 -2.28125 C 1.96875 -2.25 2.148438 -2.164062 2.296875 -2.03125 C 2.441406 -1.90625 2.546875 -1.742188 2.609375 -1.546875 C 2.671875 -1.347656 2.679688 -1.125 2.640625 -0.875 C 2.597656 -0.613281 2.515625 -0.390625 2.390625 -0.203125 C 2.265625 -0.0234375 2.109375 0.0976562 1.921875 0.171875 C 1.742188 0.253906 1.539062 0.273438 1.3125 0.234375 Z M 1.359375 -0.046875 C 1.617188 -0.00390625 1.828125 -0.0546875 1.984375 -0.203125 C 2.148438 -0.347656 2.257812 -0.585938 2.3125 -0.921875 C 2.363281 -1.234375 2.335938 -1.476562 2.234375 -1.65625 C 2.140625 -1.84375 1.96875 -1.957031 1.71875 -2 C 1.46875 -2.039062 1.257812 -1.984375 1.09375 -1.828125 C 0.925781 -1.671875 0.816406 -1.429688 0.765625 -1.109375 C 0.722656 -0.796875 0.75 -0.546875 0.84375 -0.359375 C 0.945312 -0.179688 1.117188 -0.078125 1.359375 -0.046875 Z M 1.359375 -0.046875 "/></g></g></g><g fill="#c2986e" fill-opacity="1"><g transform="translate(36.361001, 32.530907)"><g><path d="M 1.375 -2.375 C 1.75 -2.34375 2.03125 -2.21875 2.21875 -2 C 2.40625 -1.78125 2.476562 -1.476562 2.4375 -1.09375 C 2.414062 -0.832031 2.347656 -0.609375 2.234375 -0.421875 C 2.117188 -0.234375 1.96875 -0.09375 1.78125 0 C 1.59375 0.0820312 1.378906 0.113281 1.140625 0.09375 L 0.34375 0.03125 C 0.257812 0.0195312 0.222656 -0.015625 0.234375 -0.078125 L 0.234375 -0.171875 C 0.242188 -0.234375 0.289062 -0.257812 0.375 -0.25 L 0.46875 -0.25 L 0.640625 -2.171875 L 0.546875 -2.171875 C 0.460938 -2.179688 0.421875 -2.21875 0.421875 -2.28125 L 0.4375 -2.359375 C 0.4375 -2.429688 0.476562 -2.460938 0.5625 -2.453125 Z M 1.140625 -0.1875 C 1.429688 -0.15625 1.660156 -0.222656 1.828125 -0.390625 C 1.992188 -0.554688 2.085938 -0.800781 2.109375 -1.125 C 2.140625 -1.4375 2.09375 -1.671875 1.96875 -1.828125 C 1.84375 -1.984375 1.632812 -2.078125 1.34375 -2.109375 L 0.953125 -2.140625 L 0.78125 -0.21875 Z M 1.140625 -0.1875 "/></g></g></g><g fill="#c2986e" fill-opacity="1"><g transform="translate(39.755477, 32.804349)"><g><path d="M 2.359375 -2.453125 C 2.429688 -2.453125 2.46875 -2.414062 2.46875 -2.34375 L 2.46875 -2.265625 C 2.46875 -2.203125 2.429688 -2.171875 2.359375 -2.171875 L 2.265625 -2.171875 L 2.234375 -0.984375 C 2.234375 -0.640625 2.148438 -0.378906 1.984375 -0.203125 C 1.828125 -0.0234375 1.597656 0.0625 1.296875 0.0625 C 1.003906 0.0507812 0.78125 -0.0351562 0.625 -0.203125 C 0.476562 -0.378906 0.40625 -0.628906 0.40625 -0.953125 L 0.4375 -2.203125 L 0.34375 -2.21875 C 0.257812 -2.21875 0.21875 -2.25 0.21875 -2.3125 L 0.21875 -2.390625 C 0.21875 -2.460938 0.257812 -2.5 0.34375 -2.5 L 0.84375 -2.484375 C 0.925781 -2.484375 0.96875 -2.445312 0.96875 -2.375 L 0.96875 -2.296875 C 0.96875 -2.234375 0.925781 -2.203125 0.84375 -2.203125 L 0.75 -2.203125 L 0.71875 -0.96875 C 0.71875 -0.71875 0.765625 -0.53125 0.859375 -0.40625 C 0.953125 -0.289062 1.097656 -0.226562 1.296875 -0.21875 C 1.503906 -0.21875 1.660156 -0.28125 1.765625 -0.40625 C 1.867188 -0.53125 1.921875 -0.726562 1.921875 -1 L 1.953125 -2.1875 L 1.859375 -2.1875 C 1.773438 -2.1875 1.734375 -2.21875 1.734375 -2.28125 L 1.734375 -2.359375 C 1.734375 -2.429688 1.773438 -2.46875 1.859375 -2.46875 Z M 2.359375 -2.453125 "/></g></g></g><g fill="#c2986e" fill-opacity="1"><g transform="translate(43.183512, 32.843607)"><g><path d="M 2 -0.78125 C 2.039062 -0.78125 2.078125 -0.765625 2.109375 -0.734375 C 2.140625 -0.710938 2.15625 -0.6875 2.15625 -0.65625 C 2.164062 -0.601562 2.148438 -0.550781 2.109375 -0.5 C 2.023438 -0.351562 1.914062 -0.238281 1.78125 -0.15625 C 1.65625 -0.0820312 1.5 -0.0390625 1.3125 -0.03125 C 1.09375 -0.0195312 0.898438 -0.0625 0.734375 -0.15625 C 0.566406 -0.25 0.4375 -0.390625 0.34375 -0.578125 C 0.25 -0.773438 0.195312 -1.003906 0.1875 -1.265625 C 0.175781 -1.671875 0.257812 -1.988281 0.4375 -2.21875 C 0.613281 -2.445312 0.867188 -2.570312 1.203125 -2.59375 C 1.359375 -2.601562 1.503906 -2.582031 1.640625 -2.53125 C 1.773438 -2.476562 1.882812 -2.398438 1.96875 -2.296875 C 2.050781 -2.203125 2.09375 -2.097656 2.09375 -1.984375 C 2.101562 -1.910156 2.085938 -1.847656 2.046875 -1.796875 C 2.003906 -1.753906 1.953125 -1.734375 1.890625 -1.734375 C 1.828125 -1.734375 1.773438 -1.75 1.734375 -1.78125 C 1.691406 -1.820312 1.671875 -1.867188 1.671875 -1.921875 C 1.660156 -1.992188 1.679688 -2.050781 1.734375 -2.09375 C 1.691406 -2.164062 1.617188 -2.21875 1.515625 -2.25 C 1.421875 -2.289062 1.316406 -2.3125 1.203125 -2.3125 C 0.710938 -2.289062 0.484375 -1.945312 0.515625 -1.28125 C 0.535156 -0.957031 0.609375 -0.710938 0.734375 -0.546875 C 0.867188 -0.378906 1.054688 -0.300781 1.296875 -0.3125 C 1.429688 -0.3125 1.546875 -0.335938 1.640625 -0.390625 C 1.742188 -0.453125 1.820312 -0.546875 1.875 -0.671875 C 1.894531 -0.710938 1.910156 -0.738281 1.921875 -0.75 C 1.941406 -0.769531 1.96875 -0.78125 2 -0.78125 Z M 2 -0.78125 "/></g></g></g><g fill="#c2986e" fill-opacity="1"><g transform="translate(46.400688, 32.668547)"><g><path d="M 1.71875 -2.703125 C 1.757812 -2.703125 1.789062 -2.6875 1.8125 -2.65625 C 1.84375 -2.632812 1.863281 -2.601562 1.875 -2.5625 L 1.90625 -2.1875 C 1.914062 -2.113281 1.890625 -2.070312 1.828125 -2.0625 L 1.734375 -2.0625 C 1.671875 -2.050781 1.632812 -2.082031 1.625 -2.15625 L 1.59375 -2.40625 L 1.0625 -2.34375 L 1.28125 -0.421875 L 1.375 -0.4375 C 1.445312 -0.445312 1.488281 -0.421875 1.5 -0.359375 L 1.5 -0.265625 C 1.507812 -0.203125 1.476562 -0.164062 1.40625 -0.15625 L 0.90625 -0.09375 C 0.832031 -0.09375 0.789062 -0.125 0.78125 -0.1875 L 0.78125 -0.28125 C 0.769531 -0.34375 0.800781 -0.375 0.875 -0.375 L 0.96875 -0.390625 L 0.75 -2.3125 L 0.21875 -2.25 L 0.25 -2 C 0.257812 -1.925781 0.234375 -1.890625 0.171875 -1.890625 L 0.078125 -1.875 C 0.015625 -1.863281 -0.0195312 -1.894531 -0.03125 -1.96875 L -0.0625 -2.34375 C -0.0703125 -2.382812 -0.0625 -2.421875 -0.03125 -2.453125 C -0.0078125 -2.492188 0.0195312 -2.515625 0.0625 -2.515625 Z M 1.71875 -2.703125 "/></g></g></g><g fill="#c2986e" fill-opacity="1"><g transform="translate(49.510745, 32.291675)"><g><path d="M 0.34375 -0.0625 C 0.257812 -0.0390625 0.210938 -0.0625 0.203125 -0.125 L 0.1875 -0.21875 C 0.175781 -0.28125 0.210938 -0.320312 0.296875 -0.34375 L 0.390625 -0.34375 L 0.078125 -2.25 L -0.015625 -2.25 C -0.0976562 -2.226562 -0.144531 -2.25 -0.15625 -2.3125 L -0.15625 -2.390625 C -0.175781 -2.460938 -0.144531 -2.507812 -0.0625 -2.53125 L 0.421875 -2.609375 C 0.503906 -2.617188 0.554688 -2.585938 0.578125 -2.515625 L 0.578125 -2.4375 C 0.585938 -2.375 0.550781 -2.335938 0.46875 -2.328125 L 0.375 -2.3125 L 0.6875 -0.40625 L 0.78125 -0.421875 C 0.863281 -0.429688 0.910156 -0.40625 0.921875 -0.34375 L 0.9375 -0.25 C 0.945312 -0.1875 0.910156 -0.148438 0.828125 -0.140625 Z M 0.34375 -0.0625 "/></g></g></g><g fill="#c2986e" fill-opacity="1"><g transform="translate(51.475202, 31.972566)"><g><path d="M 1.296875 -0.25 C 1.085938 -0.207031 0.890625 -0.21875 0.703125 -0.28125 C 0.523438 -0.34375 0.375 -0.453125 0.25 -0.609375 C 0.132812 -0.773438 0.046875 -0.984375 -0.015625 -1.234375 C -0.0664062 -1.492188 -0.0664062 -1.726562 -0.015625 -1.9375 C 0.0234375 -2.15625 0.113281 -2.332031 0.25 -2.46875 C 0.382812 -2.613281 0.566406 -2.710938 0.796875 -2.765625 C 1.003906 -2.804688 1.203125 -2.796875 1.390625 -2.734375 C 1.585938 -2.671875 1.742188 -2.554688 1.859375 -2.390625 C 1.984375 -2.234375 2.070312 -2.03125 2.125 -1.78125 C 2.1875 -1.53125 2.191406 -1.296875 2.140625 -1.078125 C 2.097656 -0.859375 2.003906 -0.675781 1.859375 -0.53125 C 1.710938 -0.394531 1.523438 -0.300781 1.296875 -0.25 Z M 1.25 -0.53125 C 1.5 -0.59375 1.671875 -0.722656 1.765625 -0.921875 C 1.867188 -1.117188 1.882812 -1.378906 1.8125 -1.703125 C 1.75 -2.003906 1.632812 -2.222656 1.46875 -2.359375 C 1.300781 -2.503906 1.097656 -2.550781 0.859375 -2.5 C 0.617188 -2.445312 0.445312 -2.3125 0.34375 -2.09375 C 0.25 -1.882812 0.234375 -1.625 0.296875 -1.3125 C 0.367188 -1.007812 0.488281 -0.789062 0.65625 -0.65625 C 0.820312 -0.519531 1.019531 -0.476562 1.25 -0.53125 Z M 1.25 -0.53125 "/></g></g></g><g fill="#c2986e" fill-opacity="1"><g transform="translate(54.923111, 31.18825)"><g><path d="M 1.5625 -3.078125 C 1.632812 -3.085938 1.679688 -3.054688 1.703125 -2.984375 L 1.71875 -2.90625 C 1.738281 -2.84375 1.710938 -2.804688 1.640625 -2.796875 L 1.546875 -2.765625 L 2.140625 -0.765625 C 2.148438 -0.734375 2.144531 -0.703125 2.125 -0.671875 C 2.113281 -0.640625 2.085938 -0.617188 2.046875 -0.609375 L 1.9375 -0.5625 C 1.90625 -0.550781 1.867188 -0.5625 1.828125 -0.59375 L 0.140625 -2.0625 L 0.609375 -0.46875 L 0.703125 -0.5 C 0.785156 -0.519531 0.835938 -0.503906 0.859375 -0.453125 L 0.875 -0.359375 C 0.894531 -0.296875 0.863281 -0.253906 0.78125 -0.234375 L 0.328125 -0.09375 C 0.242188 -0.0703125 0.191406 -0.09375 0.171875 -0.15625 L 0.15625 -0.25 C 0.132812 -0.300781 0.164062 -0.335938 0.25 -0.359375 L 0.34375 -0.390625 L -0.203125 -2.25 L -0.296875 -2.21875 C -0.378906 -2.195312 -0.429688 -2.21875 -0.453125 -2.28125 L -0.46875 -2.359375 C -0.488281 -2.429688 -0.457031 -2.476562 -0.375 -2.5 L -0.0625 -2.59375 C -0.0195312 -2.601562 0.015625 -2.59375 0.046875 -2.5625 L 1.75 -1.09375 L 1.28125 -2.6875 L 1.171875 -2.65625 C 1.097656 -2.632812 1.050781 -2.65625 1.03125 -2.71875 L 1.015625 -2.796875 C 0.992188 -2.867188 1.019531 -2.914062 1.09375 -2.9375 Z M 1.5625 -3.078125 "/></g></g></g><path stroke-linecap="round" transform="matrix(0.191055, 0, 0, 0.191055, 52.222734, 19.820637)" fill="none" stroke-linejoin="miter" d="M 1.001433 1.000143 L 125.188763 1.000143 " stroke="#c2986e" stroke-width="2" stroke-opacity="1" stroke-miterlimit="4"/><path stroke-linecap="round" transform="matrix(0.191055, 0, 0, 0.191055, 52.222734, 8.448339)" fill="none" stroke-linejoin="miter" d="M 1.001433 1.006445 L 125.188763 1.006445 " stroke="#c2986e" stroke-width="2" stroke-opacity="1" stroke-miterlimit="4"/><g fill="#c2986e" fill-opacity="1"><g transform="translate(55.893584, 16.640033)"><g><path d="M 0.296875 -0.09375 C 0.296875 -0.03125 0.328125 0 0.390625 0 L 1.796875 0 C 2.34375 0 2.640625 -0.296875 2.640625 -0.84375 L 2.640625 -3.84375 C 2.640625 -4.390625 2.34375 -4.6875 1.796875 -4.6875 L 0.390625 -4.6875 C 0.328125 -4.6875 0.296875 -4.65625 0.296875 -4.59375 Z M 1.09375 -0.78125 L 1.09375 -3.921875 L 1.625 -3.921875 C 1.78125 -3.921875 1.859375 -3.828125 1.859375 -3.671875 L 1.859375 -1.015625 C 1.859375 -0.84375 1.78125 -0.78125 1.625 -0.78125 Z M 1.09375 -0.78125 "/></g></g></g><g fill="#c2986e" fill-opacity="1"><g transform="translate(59.179501, 16.640033)"><g><path d="M 0.296875 -0.84375 C 0.296875 -0.296875 0.59375 0 1.140625 0 L 1.796875 0 C 2.34375 0 2.640625 -0.296875 2.640625 -0.84375 L 2.640625 -3.84375 C 2.640625 -4.390625 2.34375 -4.6875 1.796875 -4.6875 L 1.140625 -4.6875 C 0.59375 -4.6875 0.296875 -4.390625 0.296875 -3.84375 Z M 1.3125 -0.75 C 1.15625 -0.75 1.078125 -0.828125 1.078125 -0.984375 L 1.078125 -3.703125 C 1.078125 -3.84375 1.15625 -3.9375 1.3125 -3.9375 L 1.640625 -3.9375 C 1.796875 -3.9375 1.875 -3.84375 1.875 -3.703125 L 1.875 -0.984375 C 1.875 -0.828125 1.796875 -0.75 1.640625 -0.75 Z M 1.3125 -0.75 "/></g></g></g><g fill="#c2986e" fill-opacity="1"><g transform="translate(62.465418, 16.640033)"><g><path d="M 3.5 -4.6875 C 3.421875 -4.6875 3.375 -4.640625 3.375 -4.578125 L 3.140625 -1.828125 L 3.109375 -1.828125 L 2.53125 -4.578125 C 2.515625 -4.65625 2.46875 -4.6875 2.40625 -4.6875 L 2.046875 -4.6875 C 1.984375 -4.6875 1.9375 -4.65625 1.921875 -4.578125 L 1.34375 -1.828125 L 1.3125 -1.828125 L 1.078125 -4.578125 C 1.078125 -4.640625 1.03125 -4.6875 0.96875 -4.6875 L 0.40625 -4.6875 C 0.328125 -4.6875 0.28125 -4.640625 0.296875 -4.5625 L 0.78125 -0.109375 C 0.78125 -0.03125 0.828125 0 0.890625 0 L 1.484375 0 C 1.546875 0 1.59375 -0.03125 1.609375 -0.09375 L 2.234375 -2.75 L 2.84375 -0.109375 C 2.859375 -0.03125 2.890625 0 2.96875 0 L 3.546875 0 C 3.609375 0 3.65625 -0.03125 3.65625 -0.109375 L 4.171875 -4.5625 C 4.171875 -4.640625 4.125 -4.6875 4.0625 -4.6875 Z M 3.5 -4.6875 "/></g></g></g><g fill="#c2986e" fill-opacity="1"><g transform="translate(67.28002, 16.640033)"><g><path d="M 2.09375 -4.6875 C 2.03125 -4.6875 2 -4.65625 2 -4.59375 L 2 -2.125 L 1.96875 -2.125 L 1.078125 -4.609375 C 1.0625 -4.671875 1.015625 -4.6875 0.96875 -4.6875 L 0.390625 -4.6875 C 0.328125 -4.6875 0.296875 -4.65625 0.296875 -4.59375 L 0.296875 -0.09375 C 0.296875 -0.03125 0.328125 0 0.390625 0 L 1 0 C 1.0625 0 1.09375 -0.03125 1.09375 -0.09375 L 1.09375 -2.578125 L 1.125 -2.578125 L 2.015625 -0.078125 C 2.03125 -0.03125 2.0625 0 2.125 0 L 2.703125 0 C 2.765625 0 2.796875 -0.03125 2.796875 -0.09375 L 2.796875 -4.59375 C 2.796875 -4.65625 2.765625 -4.6875 2.703125 -4.6875 Z M 2.09375 -4.6875 "/></g></g></g></svg>