<svg xmlns="http://www.w3.org/2000/svg" xmlns:xlink="http://www.w3.org/1999/xlink" width="40" zoomAndPan="magnify" viewBox="0 0 810 809.999993" height="40" preserveAspectRatio="xMidYMid meet" version="1.0"><path fill="#ffffff" d="M 333.96875 508.292969 L 333.96875 301.683594 L 515.574219 404.992188 Z M 737.925781 236.671875 C 729.933594 206.585938 706.390625 182.894531 676.496094 174.851562 C 622.3125 160.238281 405.03125 160.238281 405.03125 160.238281 C 405.03125 160.238281 187.75 160.238281 133.566406 174.851562 C 103.671875 182.894531 80.128906 206.585938 72.136719 236.671875 C 57.617188 291.207031 57.617188 404.988281 57.617188 404.988281 C 57.617188 404.988281 57.617188 518.765625 72.136719 573.300781 C 80.128906 603.390625 103.671875 627.082031 133.566406 635.128906 C 187.75 649.738281 405.03125 649.738281 405.03125 649.738281 C 405.03125 649.738281 622.3125 649.738281 676.496094 635.128906 C 706.390625 627.082031 729.933594 603.390625 737.925781 573.300781 C 752.445312 518.765625 752.445312 404.984375 752.445312 404.984375 C 752.445312 404.984375 752.445312 291.207031 737.925781 236.671875 " fill-opacity="1" fill-rule="nonzero"/></svg>